<svg width="200" height="184" viewBox="0 0 200 184" fill="none" xmlns="http://www.w3.org/2000/svg">
    <path
        d="M100 174C143.078 174 178 139.078 178 96C178 52.9218 143.078 18 100 18C56.9218 18 22 52.9218 22 96C22 139.078 56.9218 174 100 174Z"
        stroke="#EDE9FE" stroke-width="1.5" stroke-linecap="round" stroke-dasharray="6 5" />
    <path
        d="M100 158C134.242 158 162 130.242 162 96C162 61.7583 134.242 34 100 34C65.7583 34 38 61.7583 38 96C38 130.242 65.7583 158 100 158Z"
        stroke="#F3F0FF" />
    <path opacity="0.5"
        d="M123 92H77C65.9543 92 57 100.954 57 112V146C57 157.046 65.9543 166 77 166H123C134.046 166 143 157.046 143 146V112C143 100.954 134.046 92 123 92Z"
        fill="#EDE9FE" />
    <path d="M72 90V68C72 52 81.3333 44 100 44C118.667 44 128 52 128 68V90" stroke="#C4B5FD" stroke-width="2.5"
        stroke-linecap="round" />
    <path
        d="M124 88H76C64.9543 88 56 96.9543 56 108V140C56 151.046 64.9543 160 76 160H124C135.046 160 144 151.046 144 140V108C144 96.9543 135.046 88 124 88Z"
        fill="#FAFAFF" stroke="#C4B5FD" stroke-width="2" />
    <path
        d="M80 107.5C80.8284 107.5 81.5 106.828 81.5 106C81.5 105.172 80.8284 104.5 80 104.5C79.1716 104.5 78.5 105.172 78.5 106C78.5 106.828 79.1716 107.5 80 107.5Z"
        fill="#E4DAFF" />
    <path
        d="M80 119.5C80.8284 119.5 81.5 118.828 81.5 118C81.5 117.172 80.8284 116.5 80 116.5C79.1716 116.5 78.5 117.172 78.5 118C78.5 118.828 79.1716 119.5 80 119.5Z"
        fill="#E4DAFF" />
    <path
        d="M100 107.5C100.828 107.5 101.5 106.828 101.5 106C101.5 105.172 100.828 104.5 100 104.5C99.1716 104.5 98.5 105.172 98.5 106C98.5 106.828 99.1716 107.5 100 107.5Z"
        fill="#E4DAFF" />
    <path
        d="M100 119.5C100.828 119.5 101.5 118.828 101.5 118C101.5 117.172 100.828 116.5 100 116.5C99.1716 116.5 98.5 117.172 98.5 118C98.5 118.828 99.1716 119.5 100 119.5Z"
        fill="#E4DAFF" />
    <path
        d="M120 107.5C120.828 107.5 121.5 106.828 121.5 106C121.5 105.172 120.828 104.5 120 104.5C119.172 104.5 118.5 105.172 118.5 106C118.5 106.828 119.172 107.5 120 107.5Z"
        fill="#E4DAFF" />
    <path
        d="M120 119.5C120.828 119.5 121.5 118.828 121.5 118C121.5 117.172 120.828 116.5 120 116.5C119.172 116.5 118.5 117.172 118.5 118C118.5 118.828 119.172 119.5 120 119.5Z"
        fill="#E4DAFF" />
    <path
        d="M100 126C105.523 126 110 121.523 110 116C110 110.477 105.523 106 100 106C94.4772 106 90 110.477 90 116C90 121.523 94.4772 126 100 126Z"
        fill="#FAFAFF" stroke="#A78BFA" stroke-width="2" />
    <path d="M100 124V140" stroke="#A78BFA" stroke-width="2.5" stroke-linecap="round" />
    <path
        d="M40 71C41.6569 71 43 69.6569 43 68C43 66.3431 41.6569 65 40 65C38.3431 65 37 66.3431 37 68C37 69.6569 38.3431 71 40 71Z"
        fill="#DDD6FE" />
    <path
        d="M34 81.8C34.9941 81.8 35.7999 80.9941 35.7999 80C35.7999 79.0059 34.9941 78.2 34 78.2C33.0058 78.2 32.2 79.0059 32.2 80C32.2 80.9941 33.0058 81.8 34 81.8Z"
        fill="#EDE9FE" />
    <path opacity="0.6"
        d="M52 59.5C52.8284 59.5 53.5 58.8284 53.5 58C53.5 57.1716 52.8284 56.5 52 56.5C51.1716 56.5 50.5 57.1716 50.5 58C50.5 58.8284 51.1716 59.5 52 59.5Z"
        fill="#C4B5FD" />
    <path
        d="M160 75C161.657 75 163 73.6569 163 72C163 70.3431 161.657 69 160 69C158.343 69 157 70.3431 157 72C157 73.6569 158.343 75 160 75Z"
        fill="#DDD6FE" />
    <path
        d="M166 61.8C166.994 61.8 167.8 60.9941 167.8 60C167.8 59.0059 166.994 58.2 166 58.2C165.006 58.2 164.2 59.0059 164.2 60C164.2 60.9941 165.006 61.8 166 61.8Z"
        fill="#EDE9FE" />
    <path opacity="0.6"
        d="M148 63.5C148.828 63.5 149.5 62.8284 149.5 62C149.5 61.1716 148.828 60.5 148 60.5C147.172 60.5 146.5 61.1716 146.5 62C146.5 62.8284 147.172 63.5 148 63.5Z"
        fill="#C4B5FD" />
    <path
        d="M44 142.5C45.3807 142.5 46.5 141.381 46.5 140C46.5 138.619 45.3807 137.5 44 137.5C42.6193 137.5 41.5 138.619 41.5 140C41.5 141.381 42.6193 142.5 44 142.5Z"
        fill="#EDE9FE" />
    <path
        d="M156 138.5C157.381 138.5 158.5 137.381 158.5 136C158.5 134.619 157.381 133.5 156 133.5C154.619 133.5 153.5 134.619 153.5 136C153.5 137.381 154.619 138.5 156 138.5Z"
        fill="#EDE9FE" />
    <path opacity="0.8" d="M30 108L32 112L30 116L28 112L30 108Z" fill="#DDD6FE" />
    <path opacity="0.8" d="M170 104L172 108L170 112L168 108L170 104Z" fill="#DDD6FE" />
</svg>