<svg width="210" height="192" viewBox="0 0 210 192" fill="none" xmlns="http://www.w3.org/2000/svg">
    <path opacity="0.06"
        d="M105 158C142.555 158 173 151.732 173 144C173 136.268 142.555 130 105 130C67.4446 130 37 136.268 37 144C37 151.732 67.4446 158 105 158Z"
        fill="#7C3AED" />
    <path
        d="M131 46H79C74.5817 46 71 49.5817 71 54V98C71 102.418 74.5817 106 79 106H131C135.418 106 139 102.418 139 98V54C139 49.5817 135.418 46 131 46Z"
        fill="#EDE9FE" stroke="#C4B5FD" stroke-width="1.5" />
    <path d="M83 64H127" stroke="#C4B5FD" stroke-width="1.6" stroke-linecap="round" />
    <path d="M83 74H120" stroke="#DDD6FE" stroke-width="1.4" stroke-linecap="round" />
    <path d="M83 84H114" stroke="#DDD6FE" stroke-width="1.4" stroke-linecap="round" />
    <path opacity="0.5"
        d="M105 59C107.209 59 109 57.2091 109 55C109 52.7909 107.209 51 105 51C102.791 51 101 52.7909 101 55C101 57.2091 102.791 59 105 59Z"
        fill="#A78BFA" />
    <path
        d="M160 92H50C42.268 92 36 98.268 36 106V170C36 177.732 42.268 184 50 184H160C167.732 184 174 177.732 174 170V106C174 98.268 167.732 92 160 92Z"
        fill="white" stroke="#C4B5FD" stroke-width="2" />
    <path d="M36 106L105 148L174 106" stroke="#C4B5FD" stroke-width="1.8" stroke-linecap="round"
        stroke-linejoin="round" />
    <path d="M36 172L80 140M174 172L130 140" stroke="#EDE9FE" stroke-width="1.5" stroke-linecap="round" />
    <path
        d="M158 102C169.046 102 178 93.0457 178 82C178 70.9543 169.046 62 158 62C146.954 62 138 70.9543 138 82C138 93.0457 146.954 102 158 102Z"
        fill="#10B981" />
    <path opacity="0.12"
        d="M158 102C169.046 102 178 93.0457 178 82C178 70.9543 169.046 62 158 62C146.954 62 138 70.9543 138 82C138 93.0457 146.954 102 158 102Z"
        fill="white" />
    <path d="M149 82L155.5 88.5L167 74" stroke="white" stroke-width="2.8" stroke-linecap="round"
        stroke-linejoin="round" />
    <path
        d="M28 103.5C29.933 103.5 31.5 101.933 31.5 100C31.5 98.067 29.933 96.5 28 96.5C26.067 96.5 24.5 98.067 24.5 100C24.5 101.933 26.067 103.5 28 103.5Z"
        fill="#DDD6FE" />
    <path
        d="M20 116C21.1046 116 22 115.105 22 114C22 112.895 21.1046 112 20 112C18.8954 112 18 112.895 18 114C18 115.105 18.8954 116 20 116Z"
        fill="#EDE9FE" />
    <path
        d="M182 109.5C183.933 109.5 185.5 107.933 185.5 106C185.5 104.067 183.933 102.5 182 102.5C180.067 102.5 178.5 104.067 178.5 106C178.5 107.933 180.067 109.5 182 109.5Z"
        fill="#DDD6FE" />
    <path
        d="M192 94C193.105 94 194 93.1046 194 92C194 90.8954 193.105 90 192 90C190.895 90 190 90.8954 190 92C190 93.1046 190.895 94 192 94Z"
        fill="#EDE9FE" />
    <path
        d="M46 162.5C47.3807 162.5 48.5 161.381 48.5 160C48.5 158.619 47.3807 157.5 46 157.5C44.6193 157.5 43.5 158.619 43.5 160C43.5 161.381 44.6193 162.5 46 162.5Z"
        fill="#EDE9FE" />
    <path
        d="M164 166.5C165.381 166.5 166.5 165.381 166.5 164C166.5 162.619 165.381 161.5 164 161.5C162.619 161.5 161.5 162.619 161.5 164C161.5 165.381 162.619 166.5 164 166.5Z"
        fill="#EDE9FE" />
    <path opacity="0.9" d="M24 80L26 84L24 88L22 84L24 80Z" fill="#DDD6FE" />
    <path opacity="0.9" d="M188 136L190 140L188 144L186 140L188 136Z" fill="#DDD6FE" />
</svg>